<?xml version="1.0" encoding="UTF-8"?>
<!DOCTYPE svg PUBLIC "-//W3C//DTD SVG 1.1//EN" "http://www.w3.org/Graphics/SVG/1.1/DTD/svg11.dtd">
<svg version="1.1" xmlns="http://www.w3.org/2000/svg" xmlns:xlink="http://www.w3.org/1999/xlink" x="0" y="0" width="50" height="50" viewBox="0, 0, 50, 50">
  <g id="Layer_1">
    <path d="M0,0 L50,0 L50,50 L0,50 L0,0 z" fill-opacity="0" stroke="#000000" stroke-width="1"/>
    <g>
      <path d="M0,25 L50,25 L50,50 L0,50 L0,25 z" fill="#000000"/>
      <path d="M0,25 L50,25 L50,50 L0,50 L0,25 z" fill-opacity="0" stroke="#000000" stroke-width="1"/>
    </g>
    <g>
      <path d="M19.105,12.518 C19.105,11.966 19.878,11.414 20.762,11.414 C21.645,11.414 22.419,11.966 22.419,12.518 C22.419,13.181 21.645,13.622 20.762,13.622 C19.878,13.622 19.105,13.181 19.105,12.518 z" fill="#000000"/>
      <path d="M26.615,28.319 C26.615,27.767 25.511,27.767 24.186,28.209 C22.087,28.872 21.866,28.761 22.971,27.326 C23.744,26.442 24.075,25.338 23.633,25.006 C23.302,24.565 23.633,23.571 24.296,22.687 C25.511,21.252 25.179,20.92 22.639,20.258 C19.768,19.485 19.768,19.374 21.645,18.049 C23.633,16.613 23.523,16.503 20.983,16.503 C15.24,16.503 13.142,9.435 18.553,8.11 C22.639,7.005 24.959,8.883 24.848,13.079 C24.738,14.957 25.069,16.282 25.511,15.951 C27.83,14.515 29.818,16.834 29.707,20.699 C29.597,23.018 29.928,25.779 30.26,26.994 C30.922,28.761 30.591,29.313 28.824,29.313 C27.609,29.313 26.615,28.872 26.615,28.319 z M23.302,12.637 C23.302,11.864 22.529,10.539 21.535,9.766 C19.989,8.551 19.547,8.662 18.222,10.429 C17.228,11.864 17.007,12.858 17.891,13.852 C19.216,15.509 23.302,14.625 23.302,12.637 z" fill="#000000"/>
      <path d="M11.817,26.615 C7.73,24.848 7.62,22.308 11.596,23.854 C13.915,24.738 13.804,24.075 11.264,21.204 C8.724,18.222 7.51,18.112 8.393,20.983 C8.945,22.64 8.614,23.192 7.289,23.192 C6.074,23.192 5.632,23.744 6.074,24.848 C6.405,25.842 6.074,26.505 5.08,26.505 C2.982,26.505 2.982,25.18 5.08,18.443 C5.963,15.572 6.626,13.032 6.737,12.7 C6.737,12.369 6.957,12.148 7.289,12.148 C7.62,12.148 7.841,12.479 7.73,12.811 C7.73,13.252 8.283,14.025 9.166,14.467 C10.27,15.24 10.27,15.461 9.277,15.461 C8.504,15.461 7.841,15.903 7.841,16.566 C7.841,17.118 8.614,17.339 9.608,16.897 C11.817,16.124 15.461,20.431 15.571,23.744 C15.571,25.621 15.792,25.621 16.676,24.296 C17.559,22.971 17.78,23.302 17.78,25.732 C17.78,29.155 17.559,29.155 11.817,26.615 z" fill="#000000"/>
      <path d="M37.99,27.436 C36.996,26.221 37.438,25.227 39.978,22.687 C41.635,20.92 42.849,19.043 42.408,18.38 C41.966,17.607 42.518,17.497 43.843,18.049 C45.5,18.711 45.721,18.601 44.616,17.497 C42.628,15.509 42.849,13.19 44.837,13.19 C46.052,13.19 46.494,14.404 46.494,17.386 C46.494,21.804 43.954,26.442 41.524,26.442 C40.751,26.442 39.868,26.994 39.647,27.657 C39.315,28.54 38.874,28.43 37.99,27.436 z M44.175,22.687 C44.948,21.804 45.058,20.81 44.506,20.589 C44.064,20.258 43.07,20.92 42.297,22.135 C40.751,24.565 42.297,25.006 44.175,22.687 z" fill="#000000"/>
      <path d="M31.364,15.73 C29.155,14.846 29.707,11.312 32.358,9.435 C35.34,7.336 35.45,7.336 37.99,9.214 C39.536,10.429 39.757,11.312 38.763,13.631 C37.769,16.392 34.898,17.276 31.364,15.73 z M37.107,12.748 C37.107,10.318 35.561,9.545 33.352,10.87 C31.253,12.196 32.689,15.619 35.119,15.177 C36.223,14.957 37.107,13.852 37.107,12.748 z" fill="#000000"/>
      <path d="M33.904,13.41 C33.573,12.748 33.794,11.864 34.456,11.533 C36.113,10.429 37.217,11.864 35.781,13.3 C35.008,14.073 34.346,14.073 33.904,13.41 z" fill="#000000"/>
      <path d="M8.614,10.271 C6.295,7.951 11.154,0 14.909,0 C15.571,0 14.798,1.104 13.252,2.54 C9.608,5.522 8.393,8.945 10.27,10.16 C11.154,10.602 11.154,11.044 10.491,11.044 C9.829,11.044 8.945,10.712 8.614,10.271 z" fill="#000000"/>
    </g>
    <text transform="matrix(1, 0, 0, 1, 27.615, -104.5)"/>
    <text transform="matrix(1, 0, 0, 1, 26.833, 38.375)">
      <tspan x="-21.579" y="6.264" font-family="Arial-Black" font-size="21" fill="#FFFFFF">ION</tspan>
    </text>
  </g>
</svg>
