<?xml version="1.0" encoding="UTF-8"?>
<!DOCTYPE svg PUBLIC "-//W3C//DTD SVG 1.1//EN" "http://www.w3.org/Graphics/SVG/1.1/DTD/svg11.dtd">
<svg version="1.1" xmlns="http://www.w3.org/2000/svg" xmlns:xlink="http://www.w3.org/1999/xlink" x="0" y="0" width="300" height="300" viewBox="0, 0, 300, 300">
  <g id="Layer_1">
    <text transform="matrix(1, 0, 0, 1, 150, 168.75)">
      <tspan x="-98.93" y="24" font-family="Georgia" font-size="96" fill="#000000">uBio</tspan>
    </text>
    <path d="M185,87.25 C179.477,87.25 175,82.773 175,77.25 C175,71.727 179.477,67.25 185,67.25 C190.523,67.25 195,71.727 195,77.25 C195,82.773 190.523,87.25 185,87.25 z" fill="#000000"/>
    <path d="M214,111.25 C208.477,111.25 204,106.773 204,101.25 C204,95.727 208.477,91.25 214,91.25 C219.523,91.25 224,95.727 224,101.25 C224,106.773 219.523,111.25 214,111.25 z" fill="#000000"/>
    <path d="M152,113.75 C146.477,113.75 142,109.273 142,103.75 C142,98.227 146.477,93.75 152,93.75 C157.523,93.75 162,98.227 162,103.75 C162,109.273 157.523,113.75 152,113.75 z" fill="#6A6A6A"/>
    <path d="M182.5,134.75 C178.358,134.75 175,131.392 175,127.25 C175,123.108 178.358,119.75 182.5,119.75 C186.642,119.75 190,123.108 190,127.25 C190,131.392 186.642,134.75 182.5,134.75 z" fill="#000000"/>
  </g>
</svg>
